<svg xmlns="http://www.w3.org/2000/svg" xmlns:xlink="http://www.w3.org/1999/xlink" width="5700" height="900" viewBox="0 0 5700 900" version="1.1" xml:space="preserve"><defs><style>@keyframes fade1{0%{fill-opacity:0;stroke-opacity:0;stroke-width:0}50%{fill-opacity:0.5;stroke-opacity:1}100%{fill:#ff9fbf;stroke:#ffccdd;fill-opacity:1;stroke-opacity:1;stroke-width:25}}@keyframes dash{0%,100%{stroke-dasharray:none;stroke-width:25}50%{stroke-dasharray:none;stroke-width:0}}@keyframes fade2{0%,100%{fill-opacity:1}50%{fill-opacity:0}}@keyframes stroke-color-fade{0%,100%{stroke:#ffccdd}50%{stroke:#ffffff}}.main{fill:rgba(255,159,191,0);fill-rule:nonzero;stroke:rgba(255,204,221,0);stroke-linecap:round;stroke-linejoin:round;animation:fade1 1s linear var(--delay1) forwards,dash 2s linear calc(var(--delay2) + 1.3s) forwards,fade2 2s linear calc(var(--delay2) + 1.3s) forwards,stroke-color-fade 2s linear calc(var(--delay2) + 1.3s) infinite forwards}</style></defs><g id="svgGroup" fill="#ff9fbf" fill-rule="nonzero" stroke="#ffccdd" stroke-linecap="round" stroke-linejoin="round" stroke-width="25px" style="fill: #ff9fbf; fill-rule: nonzero; stroke: #ffccdd; stroke-linecap: round; stroke-linejoin: round;"><!--k--><path class="main" style="--length: 600px; --delay1: 0.1s; --delay2: 1s;" d="M 100 100 L 200 100 L 200 500 L 300 500 L 300 400 L 500 400 L 500 300 L 600 300 L 600 400 L 500 400 L 500 500 L 300 500 L 300 600 L 500 600 L 500 700 L 600 700 L 600 800 L 500 800 L 500 700 L 300 700 L 300 600 L 200 600 L 200 800 L 100 800 L 100 100 Z" /><!--o--><path class="main" style="--length: 600px; --delay1: 0.2s; --delay2: 0.8s;" d="M 700 700 L 700 400 L 800 400 L 800 300 L 1100 300 L 1100 400 L 1200 400 L 1200 700 L 1100 700 L 1100 800 L 800 800 L 800 700 L 700 700 Z M 800 400 L 800 700 L 1100 700 L 1100 400 L 800 400" /><!--k--><path class="main" style="--length: 600px; --delay1: 0.3s; --delay2: 0.6s;" d="M 1300 100 L 1400 100 L 1400 500 L 1500 500 L 1500 400 L 1700 400 L 1700 300 L 1800 300 L 1800 400 L 1700 400 L 1700 500 L 1500 500 L 1500 600 L 1700 600 L 1700 700 L 1800 700 L 1800 800 L 1700 800 L 1700 700 L 1500 700 L 1500 600 L 1400 600 L 1400 800 L 1300 800 L 1300 100 Z" /><!--o--><path class="main" style="--length: 600px; --delay1: 0.4s; --delay2: 0.4s;" d="M 1900 700 L 1900 400 L 2000 400 L 2000 300 L 2300 300 L 2300 400 L 2400 400 L 2400 700 L 2300 700 L 2300 800 L 2000 800 L 2000 700 L 1900 700 Z M 2000 400 L 2000 700 L 2300 700 L 2300 400 L 2000 400" /><!--n--><path class="main" style="--length: 600px; --delay1: 0.5s; --delay2: 0.2s;" d="M 2500 800 L 2500 300 L 2900 300 L 2900 400 L 3000 400 L 3000 800 L 2900 800 L 2900 400 L 2600 400 L 2600 800 L 2500 800 Z" /><!--o--><path class="main" style="--length: 600px; --delay1: 0.6s; --delay2: 0.2s;" d="M 3100 700 L 3100 400 L 3200 400 L 3200 300 L 3500 300 L 3500 400 L 3600 400 L 3600 700 L 3500 700 L 3500 800 L 3200 800 L 3200 700 L 3100 700 Z M 3200 400 L 3200 700 L 3500 700 L 3500 400 L 3200 400" /><!--n--><path class="main" style="--length: 600px; --delay1: 0.7s; --delay2: 0.4s;" d="M 3700 800 L 3700 300 L 4100 300 L 4100 400 L 4200 400 L 4200 800 L 4100 800 L 4100 400 L 3800 400 L 3800 800 L 3700 800 Z" /><!--i--><path class="main" style="--length: 300px; --delay1: 0.8s; --delay2: 0.6s;" d="M 4300 200 L 4300 100 L 4400 100 L 4400 200 L 4300 200 Z M 4300 800 L 4300 300 L 4400 300 L 4400 800 L 4300 800" /><!--n--><path class="main" style="--length: 600px; --delay1: 0.9s; --delay2: 0.8s;" d="M 4500 800 L 4500 300 L 4900 300 L 4900 400 L 5000 400 L 5000 800 L 4900 800 L 4900 400 L 4600 400 L 4600 800 L 4500 800 Z" /><!--e--><path class="main" style="--length: 600px; --delay1: 1s; --delay2: 1s;" d="M 5550 700 L 5550 800 L 5200 800 L 5200 700 L 5100 700 L 5100 400 L 5200 400 L 5200 300 L 5500 300 L 5500 400 L 5600 400 L 5600 500 L 5500 500 L 5500 600 L 5200 600 L 5200 700 5550 700 Z M 5200 400 L 5200 500 L 5500 500 L 5500 400 L 5200 400" /></g></svg>