<?xml version="1.0" encoding="UTF-8"?>
<svg xmlns="http://www.w3.org/2000/svg"
    xmlns:xlink="http://www.w3.org/1999/xlink"
    width="100%"
    height="100%"
    viewBox="0 0 5700 900"
    version="1.1">
    <defs>
        <style>
            .kokononine-k { --length: 3800px; }
            .kokononine-o { --length: 2400px; }
            .kokononine-n { --length: 3200px; }
            .kokononine-i { --length: 1600px; }
            .kokononine-e { --length: 3150px; }
            
            .kokononine-0 { --delay0: 0.1s; --delay1: 1s; --delay2: 1s; --rotate: -9deg; }
            .kokononine-1 { --delay0: 0.2s; --delay1: 0.8s; --delay2: 0.8s; --rotate: 9deg; }
            .kokononine-2 { --delay0: 0.3s; --delay1: 0.6s; --delay2: 0.6s; --rotate: -9deg; }
            .kokononine-3 { --delay0: 0.4s; --delay1: 0.4s; --delay2: 0.4s; --rotate: 9deg; }
            .kokononine-4 { --delay0: 0.5s; --delay1: 0.2s; --delay2: 0.2s; --rotate: -9deg; }
            .kokononine-5 { --delay0: 0.6s; --delay1: 0.2s; --delay2: 0.2s; --rotate: 9deg; }
            .kokononine-6 { --delay0: 0.7s; --delay1: 0.4s; --delay2: 0.4s; --rotate: -9deg; }
            .kokononine-7 { --delay0: 0.8s; --delay1: 0.6s; --delay2: 0.6s; --rotate: 9deg; }
            .kokononine-8 { --delay0: 0.9s; --delay1: 0.8s; --delay2: 0.8s; --rotate: -9deg; }
            .kokononine-9 { --delay0: 1s; --delay1: 1s; --delay2: 1s; --rotate: 9deg; }
            
            :root {
                --kokononine-color-fill-theme: 255, 159, 191;
                --kokononine-color-stroke-theme: 255, 204, 221;
                --kokononine-color-stroke-bright: 255, 255, 255;
                --kokononine-color-shadow-theme: 255, 159, 191;
                --kokononine-color-shadow-light: 255, 204, 221;
                --kokononine-color-shadow-bright: 255, 255, 255;
            }
            
            @keyframes kokononine-entrance-transform {
                0% {
                    transform-box: view-box;
                    transform: scale(0.9) rotate(var(--rotate, 0deg));
                }
                100% {
                    transform-box: view-box;
                    transform: scale(1) rotate(0deg);
                }
            }
            
            @keyframes kokononine-entrance-fill {
                0% {
                    fill: rgba(var(--kokononine-color-fill-theme), 1);
                    fill-opacity: 0;
                }
                50% {
                    fill: rgba(var(--kokononine-color-fill-theme), 1);
                    fill-opacity: 0.5;
                }
                100% {
                    fill: rgba(var(--kokononine-color-fill-theme), 1);
                    fill-opacity: 1;
                }
            }
            
            @keyframes kokononine-entrance-stroke {
                0% {
                    stroke: rgba(var(--kokononine-color-stroke-theme), 1);
                    stroke-opacity: 0;
                    stroke-width: 0px;
                    stroke-dashoffset: var(--length);
                    filter: drop-shadow(0px 0px 25px rgba(var(--kokononine-color-shadow-theme), 0.625));
                }
                50% {
                    stroke: rgba(var(--kokononine-color-stroke-bright), 1);
                    stroke-opacity: 1;
                    stroke-width: 22.5px;
                    stroke-dashoffset: calc(var(--length) * 0.5);
                    filter: drop-shadow(0px 0px 25px rgba(var(--kokononine-color-shadow-theme), 0.75));
                }
                100% {
                    stroke: rgba(var(--kokononine-color-stroke-theme), 1);
                    stroke-opacity: 1;
                    stroke-width: 45px;
                    stroke-dashoffset: 0px;
                    filter: drop-shadow(0px 0px 25px rgba(var(--kokononine-color-shadow-theme), 1));
                }
            }
            
            @keyframes kokononine-breathing-fill {
                0% {
                    fill: rgba(var(--kokononine-color-fill-theme), 1);
                    fill-opacity: 1;
                }
                50% {
                    fill: rgba(var(--kokononine-color-fill-theme), 1);
                    fill-opacity: 0;
                }
                100% {
                    fill: rgba(var(--kokononine-color-fill-theme), 1);
                    fill-opacity: 1;
                }
            }
            
            @keyframes kokononine-breathing-stroke {
                0% {
                    stroke: rgba(var(--kokononine-color-stroke-theme), 1);
                    stroke-opacity: 1;
                    stroke-width: 45px;
                    stroke-dashoffset: 0px;
                    filter: drop-shadow(0px 0px 25px rgba(var(--kokononine-color-shadow-theme), 1));
                }
                50% {
                    stroke: rgba(var(--kokononine-color-stroke-bright), 1);
                    stroke-opacity: 1;
                    stroke-width: 0px;
                    stroke-dashoffset: calc(var(--length) * -1);
                    filter: drop-shadow(0px 0px 25px rgba(var(--kokononine-color-shadow-light), 1));
                }
                100% {
                    stroke: rgba(var(--kokononine-color-stroke-theme), 1);
                    stroke-opacity: 1;
                    stroke-width: 45px;
                    stroke-dashoffset: calc(var(--length) * -2);
                    filter: drop-shadow(0px 0px 25px rgba(var(--kokononine-color-shadow-bright), 1));
                }
            }
            
            @keyframes kokononine-color-loop-fill {
                0% {
                    fill: rgba(var(--kokononine-color-fill-theme), 1);
                    fill-opacity: 1;
                }
                50% {
                    fill: rgba(var(--kokononine-color-fill-theme), 1);
                    fill-opacity: 1;
                }
                100% {
                    fill: rgba(var(--kokononine-color-fill-theme), 1);
                    fill-opacity: 1;
                }
            }
            
            @keyframes kokononine-color-loop-stroke {
                0% {
                    stroke: rgba(var(--kokononine-color-stroke-theme), 1);
                    stroke-opacity: 1;
                    stroke-width: 45px;
                    stroke-dashoffset: 0px;
                    filter: drop-shadow(0px 0px 25px rgba(var(--kokononine-color-shadow-bright), 1));
                }
                50% {
                    stroke: rgba(var(--kokononine-color-stroke-bright), 1);
                    stroke-opacity: 1;
                    stroke-width: 45px;
                    stroke-dashoffset: 0px;
                    filter: drop-shadow(0px 0px 25px rgba(var(--kokononine-color-shadow-theme), 1));
                }
                100% {
                    stroke: rgba(var(--kokononine-color-stroke-theme), 1);
                    stroke-opacity: 1;
                    stroke-width: 45px;
                    stroke-dashoffset: 0px;
                    filter: drop-shadow(0px 0px 25px rgba(var(--kokononine-color-shadow-bright), 1));
                }
            }
            
            .kokononine-theme {
                paint-order: stroke fill markers;
                vector-effect: none;
                shape-rendering: geometricPrecision;
                fill: rgba(var(--kokononine-color-fill-theme), 1);
                fill-opacity: 0;
                fill-rule: nonzero;
                stroke: rgba(var(--kokononine-color-stroke-theme), 1);
                stroke-opacity: 0;
                stroke-width: 45px;
                stroke-linecap: round;
                stroke-linejoin: round;
                stroke-dasharray: var(--length) var(--length);
                stroke-dashoffset: 0px;
                transform-origin: center center;
                pointer-events: visiblePainted;
                animation:
                    kokononine-entrance-transform 1s cubic-bezier(0.25, 1.75, 0.75, 1.25) var(--delay0) forwards,
                    kokononine-entrance-fill 1s linear var(--delay0) forwards,
                    kokononine-entrance-stroke 1s linear var(--delay0) forwards,
                    kokononine-breathing-fill 2s linear calc(var(--delay1) + 1.3s) forwards,
                    kokononine-breathing-stroke 2s linear calc(var(--delay1) + 1.3s) forwards,
                    kokononine-color-loop-fill 2s linear calc(var(--delay2) + 3.5s) infinite forwards,
                    kokononine-color-loop-stroke 2s linear calc(var(--delay2) + 3.5s) infinite forwards;
                will-change: transform, filter, stroke-dashoffset;
            }
            
            .kokononine-theme:hover {
                transform-box: fill-box !important;
                transform: scale(1.01) rotate(calc(var(--rotate, 0deg) * 0.75)) !important;
                transition: transform 0.3s linear !important;
            }
        </style>
    </defs>
    <g
        id="kokononine-logo"
        paint-order="stroke fill markers"
        vector-effect="none"
        shape-rendering="geometricPrecision"
        fill="#ff9fbf"
        fill-opacity="1"
        fill-rule="nonzero"
        stroke="#ffccdd"
        stroke-opacity="1"
        stroke-width="25px"
        stroke-linecap="round"
        stroke-linejoin="round"
        style="paint-order: stroke fill markers; vector-effect: none; shape-rendering: geometricPrecision; fill: #ff9fbf; fill-opacity: 1; fill-rule: nonzero; stroke: #ffccdd; stroke-opacity: 1; stroke-width: 25px; stroke-linecap: round; stroke-linejoin: round;">
        <!--k-->
        <path
            class="kokononine-theme kokononine-k kokononine-0"
            d="M 100 100 L 200 100 L 200 500 L 300 500 L 300 400 L 500 400 L 500 300 L 600 300 L 600 400 L 500 400 L 500 500 L 300 500 L 300 600 L 500 600 L 500 700 L 600 700 L 600 800 L 500 800 L 500 700 L 300 700 L 300 600 L 200 600 L 200 800 L 100 800 L 100 100 Z" />
        <!--o-->
        <path
            class="kokononine-theme kokononine-o kokononine-1"
            d="M 700 700 L 700 400 L 800 400 L 800 300 L 1100 300 L 1100 400 L 1200 400 L 1200 700 L 1100 700 L 1100 800 L 800 800 L 800 700 L 700 700 Z M 800 400 L 800 700 L 1100 700 L 1100 400 L 800 400 Z" />
        <!--k-->
        <path
            class="kokononine-theme kokononine-k kokononine-2"
            d="M 1300 100 L 1400 100 L 1400 500 L 1500 500 L 1500 400 L 1700 400 L 1700 300 L 1800 300 L 1800 400 L 1700 400 L 1700 500 L 1500 500 L 1500 600 L 1700 600 L 1700 700 L 1800 700 L 1800 800 L 1700 800 L 1700 700 L 1500 700 L 1500 600 L 1400 600 L 1400 800 L 1300 800 L 1300 100 Z" />
        <!--o-->
        <path
            class="kokononine-theme kokononine-o kokononine-3"
            d="M 1900 700 L 1900 400 L 2000 400 L 2000 300 L 2300 300 L 2300 400 L 2400 400 L 2400 700 L 2300 700 L 2300 800 L 2000 800 L 2000 700 L 1900 700 Z M 2000 400 L 2000 700 L 2300 700 L 2300 400 L 2000 400 Z" />
        <!--n-->
        <path
            class="kokononine-theme kokononine-n kokononine-4"
            d="M 2500 800 L 2500 300 L 2900 300 L 2900 400 L 3000 400 L 3000 800 L 2900 800 L 2900 400 L 2600 400 L 2600 800 L 2500 800 Z" />
        <!--o-->
        <path
            class="kokononine-theme kokononine-o kokononine-5"
            d="M 3100 700 L 3100 400 L 3200 400 L 3200 300 L 3500 300 L 3500 400 L 3600 400 L 3600 700 L 3500 700 L 3500 800 L 3200 800 L 3200 700 L 3100 700 Z M 3200 400 L 3200 700 L 3500 700 L 3500 400 L 3200 400 Z" />
        <!--n-->
        <path
            class="kokononine-theme kokononine-n kokononine-6"
            d="M 3700 800 L 3700 300 L 4100 300 L 4100 400 L 4200 400 L 4200 800 L 4100 800 L 4100 400 L 3800 400 L 3800 800 L 3700 800 Z" />
        <!--i-->
        <path
            class="kokononine-theme kokononine-i kokononine-7"
            d="M 4300 200 L 4300 100 L 4400 100 L 4400 200 L 4300 200 Z M 4300 800 L 4300 300 L 4400 300 L 4400 800 L 4300 800 Z" />
        <!--n-->
        <path
            class="kokononine-theme kokononine-n kokononine-8"
            d="M 4500 800 L 4500 300 L 4900 300 L 4900 400 L 5000 400 L 5000 800 L 4900 800 L 4900 400 L 4600 400 L 4600 800 L 4500 800 Z" />
        <!--e-->
        <path
            class="kokononine-theme kokononine-e kokononine-9"
            d="M 5550 700 L 5550 800 L 5200 800 L 5200 700 L 5100 700 L 5100 400 L 5200 400 L 5200 300 L 5500 300 L 5500 400 L 5600 400 L 5600 500 L 5500 500 L 5500 600 L 5200 600 L 5200 700 5550 700 Z M 5200 400 L 5200 500 L 5500 500 L 5500 400 L 5200 400 Z" />
    </g>
</svg>
